<?xml version="1.0"?>
<svg xmlns="http://www.w3.org/2000/svg" viewBox="0 0 64 64">
    <path d="M 32 0 C 24.28 0 18 6.28 18 14 L 18 22 L 13 22 C 11.897 22 11 22.897 11 24 L 11 26 C 11 27.103 11.897 28 13 28 L 14 28 L 14 30 C 14 38.549 19.996 45.710156 28 47.535156 L 28 52 L 25.65625 52 C 24.32125 52 23.065094 52.520844 22.121094 53.464844 L 19.585938 56 L 15 56 C 13.346 56 12 57.346 12 59 C 12 60.654 13.346 62 15 62 L 49 62 C 50.654 62 52 60.654 52 59 C 52 57.346 50.654 56 49 56 L 44.414062 56 L 41.878906 53.464844 C 40.934906 52.520844 39.67975 52 38.34375 52 L 36 52 L 36 47.535156 C 44.004 45.710156 50 38.549 50 30 L 50 28 L 51 28 C 52.103 28 53 27.103 53 26 L 53 24 C 53 22.897 52.103 22 51 22 L 46 22 L 46 14 C 46 6.28 39.72 0 32 0 z M 32 2 C 37.213 2 41.647781 5.347 43.300781 10 L 37 10 C 36.448 10 36 10.448 36 11 C 36 11.552 36.448 12 37 12 L 43.818359 12 C 43.928359 12.652 44 13.317 44 14 L 37 14 C 36.448 14 36 14.448 36 15 C 36 15.552 36.448 16 37 16 L 44 16 L 44 18 L 37 18 C 36.448 18 36 18.448 36 19 C 36 19.552 36.448 20 37 20 L 44 20 L 44 22 L 44 28 L 44 30 C 44 36.617 38.617 42 32 42 C 25.383 42 20 36.617 20 30 L 20 28 L 20 22 L 20 20 L 27 20 C 27.552 20 28 19.552 28 19 C 28 18.448 27.552 18 27 18 L 20 18 L 20 16 L 27 16 C 27.552 16 28 15.552 28 15 C 28 14.448 27.552 14 27 14 L 20 14 C 20 13.317 20.071641 12.652 20.181641 12 L 27 12 C 27.552 12 28 11.552 28 11 C 28 10.448 27.552 10 27 10 L 20.699219 10 C 22.352219 5.347 26.787 2 32 2 z M 22 23 C 21.448 23 21 23.448 21 24 L 21 26 C 21 26.552 21.448 27 22 27 C 22.552 27 23 26.552 23 26 L 23 24 C 23 23.448 22.552 23 22 23 z M 27 23 C 26.448 23 26 23.448 26 24 L 26 26 C 26 26.552 26.448 27 27 27 C 27.552 27 28 26.552 28 26 L 28 24 C 28 23.448 27.552 23 27 23 z M 32 23 C 31.448 23 31 23.448 31 24 L 31 26 C 31 26.552 31.448 27 32 27 C 32.552 27 33 26.552 33 26 L 33 24 C 33 23.448 32.552 23 32 23 z M 37 23 C 36.448 23 36 23.448 36 24 L 36 26 C 36 26.552 36.448 27 37 27 C 37.552 27 38 26.552 38 26 L 38 24 C 38 23.448 37.552 23 37 23 z M 42 23 C 41.448 23 41 23.448 41 24 L 41 26 C 41 26.552 41.448 27 42 27 C 42.552 27 43 26.552 43 26 L 43 24 C 43 23.448 42.552 23 42 23 z M 13 24 L 18 24 L 18 26 L 13 26 L 13 24 z M 46 24 L 51 24 L 51 26 L 46 26 L 46 24 z M 16 28 L 18 28 L 18 30 C 18 37.72 24.28 44 32 44 C 39.72 44 46 37.72 46 30 L 46 28 L 48 28 L 48 30 C 48 38.822 40.822 46 32 46 C 23.178 46 16 38.822 16 30 L 16 28 z M 30 47.882812 C 30.658 47.955813 31.323 48 32 48 C 32.677 48 33.342 47.955813 34 47.882812 L 34 52 L 30 52 L 30 47.882812 z M 25.65625 54 L 38.34375 54 C 39.13375 54 39.905844 54.320906 40.464844 54.878906 L 41.585938 56 L 22.414062 56 L 23.535156 54.878906 C 24.093156 54.320906 24.86625 54 25.65625 54 z M 15 58 L 17.585938 58 L 46.414062 58 L 49 58 C 49.551 58 50 58.449 50 59 C 50 59.551 49.551 60 49 60 L 15 60 C 14.449 60 14 59.551 14 59 C 14 58.449 14.449 58 15 58 z"/>
</svg>
